<svg xmlns="http://www.w3.org/2000/svg" viewBox="0 0 720 450" width="720" height="450" role="img" aria-labelledby="t d" font-family="IBM Plex Sans, Helvetica, Arial, sans-serif"><title id="t">The Docket: entries by year, 2020 to 2026</title><desc id="d">Protocol STAMP, The Docket, 160 entries as of Oct 09, 2026. https://protocolstamp.com/docket/</desc><rect width="720" height="450" fill="#F8EED3"/><text x="24" y="38" font-size="22" font-family="IBM Plex Serif, Georgia, serif" fill="#131E29">The Docket in numbers</text><text x="24" y="60" font-size="12.5" fill="#5A4B26">160 entries &#183; 140 Supported &#183; 42 jurisdictions &#183; 2020 to 2026 &#183; as of Oct 09, 2026</text><rect x="24" y="75" width="10" height="10" rx="2" fill="#2a78d6"/><text x="39" y="84" font-size="11.5" fill="#131E29">US federal</text><rect x="112.0" y="75" width="10" height="10" rx="2" fill="#eb6834"/><text x="127.0" y="84" font-size="11.5" fill="#131E29">US states</text><rect x="193.4" y="75" width="10" height="10" rx="2" fill="#1baf7a"/><text x="208.4" y="84" font-size="11.5" fill="#131E29">European Union</text><rect x="307.8" y="75" width="10" height="10" rx="2" fill="#eda100"/><text x="322.8" y="84" font-size="11.5" fill="#131E29">United Kingdom</text><rect x="422.2" y="75" width="10" height="10" rx="2" fill="#e87ba4"/><text x="437.2" y="84" font-size="11.5" fill="#131E29">Asia-Pacific</text><rect x="24" y="93" width="10" height="10" rx="2" fill="#008300"/><text x="39" y="102" font-size="11.5" fill="#131E29">International and other</text><g transform="translate(0,114)"><line x1="40" x2="708" y1="266.0" y2="266.0" stroke="#D3BD84" stroke-width="1" /><text x="32" y="270.0" text-anchor="end" font-size="11" fill="#8B7A50">0</text><line x1="40" x2="708" y1="217.2" y2="217.2" stroke="#D3BD84" stroke-width="1" stroke-dasharray="2 4"/><text x="32" y="221.2" text-anchor="end" font-size="11" fill="#8B7A50">10</text><line x1="40" x2="708" y1="168.4" y2="168.4" stroke="#D3BD84" stroke-width="1" stroke-dasharray="2 4"/><text x="32" y="172.4" text-anchor="end" font-size="11" fill="#8B7A50">20</text><line x1="40" x2="708" y1="119.6" y2="119.6" stroke="#D3BD84" stroke-width="1" stroke-dasharray="2 4"/><text x="32" y="123.6" text-anchor="end" font-size="11" fill="#8B7A50">30</text><line x1="40" x2="708" y1="70.8" y2="70.8" stroke="#D3BD84" stroke-width="1" stroke-dasharray="2 4"/><text x="32" y="74.8" text-anchor="end" font-size="11" fill="#8B7A50">40</text><line x1="40" x2="708" y1="22.0" y2="22.0" stroke="#D3BD84" stroke-width="1" stroke-dasharray="2 4"/><text x="32" y="26.0" text-anchor="end" font-size="11" fill="#8B7A50">50</text><rect x="61.0" y="263.1" width="53.4" height="2.9" fill="#2a78d6"><title>2020 &#183; US federal: 1 entry</title></rect><rect x="61.0" y="258.2" width="53.4" height="2.9" fill="#eb6834"><title>2020 &#183; US states: 1 entry</title></rect><rect x="61.0" y="248.5" width="53.4" height="7.8" fill="#1baf7a"><title>2020 &#183; European Union: 2 entries</title></rect><rect x="61.0" y="243.6" width="53.4" height="2.9" fill="#e87ba4"><title>2020 &#183; Asia-Pacific: 1 entry</title></rect><path d="M61.0,241.6 V235.8 Q61.0,231.8 65.0,231.8 H110.4 Q114.4,231.8 114.4,235.8 V241.6 Z" fill="#008300"><title>2020 &#183; International and other: 2 entries</title></path><text x="87.7" y="225.8" text-anchor="middle" font-size="11.5" font-weight="600" fill="#131E29">7</text><text x="87.7" y="284" text-anchor="middle" font-size="11.5" fill="#8B7A50">2020</text><rect x="156.4" y="258.2" width="53.4" height="7.8" fill="#2a78d6"><title>2021 &#183; US federal: 2 entries</title></rect><rect x="156.4" y="248.5" width="53.4" height="7.8" fill="#eb6834"><title>2021 &#183; US states: 2 entries</title></rect><rect x="156.4" y="243.6" width="53.4" height="2.9" fill="#1baf7a"><title>2021 &#183; European Union: 1 entry</title></rect><rect x="156.4" y="229.0" width="53.4" height="12.6" fill="#eda100"><title>2021 &#183; United Kingdom: 3 entries</title></rect><rect x="156.4" y="219.2" width="53.4" height="7.8" fill="#e87ba4"><title>2021 &#183; Asia-Pacific: 2 entries</title></rect><path d="M156.4,217.2 V206.6 Q156.4,202.6 160.4,202.6 H205.9 Q209.9,202.6 209.9,206.6 V217.2 Z" fill="#008300"><title>2021 &#183; International and other: 3 entries</title></path><text x="183.1" y="196.6" text-anchor="middle" font-size="11.5" font-weight="600" fill="#131E29">13</text><text x="183.1" y="284" text-anchor="middle" font-size="11.5" fill="#8B7A50">2021</text><rect x="251.9" y="263.1" width="53.4" height="2.9" fill="#2a78d6"><title>2022 &#183; US federal: 1 entry</title></rect><rect x="251.9" y="253.4" width="53.4" height="7.8" fill="#1baf7a"><title>2022 &#183; European Union: 2 entries</title></rect><rect x="251.9" y="243.6" width="53.4" height="7.8" fill="#e87ba4"><title>2022 &#183; Asia-Pacific: 2 entries</title></rect><path d="M251.9,241.6 V240.7 Q251.9,236.7 255.9,236.7 H301.3 Q305.3,236.7 305.3,240.7 V241.6 Z" fill="#008300"><title>2022 &#183; International and other: 1 entry</title></path><text x="278.6" y="230.7" text-anchor="middle" font-size="11.5" font-weight="600" fill="#131E29">6</text><text x="278.6" y="284" text-anchor="middle" font-size="11.5" fill="#8B7A50">2022</text><rect x="347.3" y="233.8" width="53.4" height="32.2" fill="#2a78d6"><title>2023 &#183; US federal: 7 entries</title></rect><rect x="347.3" y="224.1" width="53.4" height="7.8" fill="#1baf7a"><title>2023 &#183; European Union: 2 entries</title></rect><rect x="347.3" y="209.4" width="53.4" height="12.6" fill="#eda100"><title>2023 &#183; United Kingdom: 3 entries</title></rect><rect x="347.3" y="194.8" width="53.4" height="12.6" fill="#e87ba4"><title>2023 &#183; Asia-Pacific: 3 entries</title></rect><path d="M347.3,192.8 V123.6 Q347.3,119.6 351.3,119.6 H396.7 Q400.7,119.6 400.7,123.6 V192.8 Z" fill="#008300"><title>2023 &#183; International and other: 15 entries</title></path><text x="374.0" y="113.6" text-anchor="middle" font-size="11.5" font-weight="600" fill="#131E29">30</text><text x="374.0" y="284" text-anchor="middle" font-size="11.5" fill="#8B7A50">2023</text><rect x="442.7" y="238.7" width="53.4" height="27.3" fill="#2a78d6"><title>2024 &#183; US federal: 6 entries</title></rect><rect x="442.7" y="214.3" width="53.4" height="22.4" fill="#eb6834"><title>2024 &#183; US states: 5 entries</title></rect><rect x="442.7" y="189.9" width="53.4" height="22.4" fill="#1baf7a"><title>2024 &#183; European Union: 5 entries</title></rect><rect x="442.7" y="180.2" width="53.4" height="7.8" fill="#eda100"><title>2024 &#183; United Kingdom: 2 entries</title></rect><rect x="442.7" y="146.0" width="53.4" height="32.2" fill="#e87ba4"><title>2024 &#183; Asia-Pacific: 7 entries</title></rect><path d="M442.7,144.0 V69.9 Q442.7,65.9 446.7,65.9 H492.1 Q496.1,65.9 496.1,69.9 V144.0 Z" fill="#008300"><title>2024 &#183; International and other: 16 entries</title></path><text x="469.4" y="59.9" text-anchor="middle" font-size="11.5" font-weight="600" fill="#131E29">41</text><text x="469.4" y="284" text-anchor="middle" font-size="11.5" fill="#8B7A50">2024</text><rect x="538.1" y="233.8" width="53.4" height="32.2" fill="#2a78d6"><title>2025 &#183; US federal: 7 entries</title></rect><rect x="538.1" y="199.7" width="53.4" height="32.2" fill="#eb6834"><title>2025 &#183; US states: 7 entries</title></rect><rect x="538.1" y="180.2" width="53.4" height="17.5" fill="#1baf7a"><title>2025 &#183; European Union: 4 entries</title></rect><rect x="538.1" y="165.5" width="53.4" height="12.6" fill="#eda100"><title>2025 &#183; United Kingdom: 3 entries</title></rect><rect x="538.1" y="121.6" width="53.4" height="41.9" fill="#e87ba4"><title>2025 &#183; Asia-Pacific: 9 entries</title></rect><path d="M538.1,119.6 V79.7 Q538.1,75.7 542.1,75.7 H587.6 Q591.6,75.7 591.6,79.7 V119.6 Z" fill="#008300"><title>2025 &#183; International and other: 9 entries</title></path><text x="564.9" y="69.7" text-anchor="middle" font-size="11.5" font-weight="600" fill="#131E29">39</text><text x="564.9" y="284" text-anchor="middle" font-size="11.5" fill="#8B7A50">2025</text><rect x="633.6" y="238.7" width="53.4" height="27.3" fill="#2a78d6"><title>2026 &#183; US federal: 6 entries</title></rect><rect x="633.6" y="199.7" width="53.4" height="37.0" fill="#eb6834"><title>2026 &#183; US states: 8 entries</title></rect><rect x="633.6" y="180.2" width="53.4" height="17.5" fill="#1baf7a"><title>2026 &#183; European Union: 4 entries</title></rect><rect x="633.6" y="175.3" width="53.4" height="2.9" fill="#eda100"><title>2026 &#183; United Kingdom: 1 entry</title></rect><rect x="633.6" y="165.5" width="53.4" height="7.8" fill="#e87ba4"><title>2026 &#183; Asia-Pacific: 2 entries</title></rect><path d="M633.6,163.5 V152.9 Q633.6,148.9 637.6,148.9 H683.0 Q687.0,148.9 687.0,152.9 V163.5 Z" fill="#008300"><title>2026 &#183; International and other: 3 entries</title></path><text x="660.3" y="142.9" text-anchor="middle" font-size="11.5" font-weight="600" fill="#131E29">24</text><text x="660.3" y="284" text-anchor="middle" font-size="11.5" fill="#8B7A50">2026</text></g><text x="24" y="434" font-size="11" fill="#5A4B26">Source: Protocol STAMP, The Docket, https://protocolstamp.com/docket/ &#183; counts by year of the event &#183; not legal advice</text></svg>