<svg xmlns="http://www.w3.org/2000/svg" viewBox="0 0 720 450" width="720" height="450" role="img" aria-labelledby="t d" font-family="IBM Plex Sans, Helvetica, Arial, sans-serif"><title id="t">The Chronicle: entries by year, 2020 to 2026</title><desc id="d">Protocol STAMP, The Chronicle, 47 entries as of Oct 09, 2026. https://protocolstamp.com/chronicle/</desc><rect width="720" height="450" fill="#F8EED3"/><text x="24" y="38" font-size="22" font-family="IBM Plex Serif, Georgia, serif" fill="#131E29">The Chronicle in numbers</text><text x="24" y="60" font-size="12.5" fill="#5A4B26">47 entries &#183; 42 Supported &#183; 15 jurisdictions &#183; 2020 to 2026 &#183; as of Oct 09, 2026</text><rect x="24" y="75" width="10" height="10" rx="2" fill="#2a78d6"/><text x="39" y="84" font-size="11.5" fill="#131E29">Rulings and filings</text><rect x="171.39999999999998" y="75" width="10" height="10" rx="2" fill="#eb6834"/><text x="186.39999999999998" y="84" font-size="11.5" fill="#131E29">Enforcement</text><rect x="266.0" y="75" width="10" height="10" rx="2" fill="#1baf7a"/><text x="281.0" y="84" font-size="11.5" fill="#131E29">Speeches and statements</text><rect x="439.79999999999995" y="75" width="10" height="10" rx="2" fill="#eda100"/><text x="454.79999999999995" y="84" font-size="11.5" fill="#131E29">Milestones</text><rect x="527.8" y="75" width="10" height="10" rx="2" fill="#e87ba4"/><text x="542.8" y="84" font-size="11.5" fill="#131E29">Rules and reports</text><g transform="translate(0,96)"><line x1="40" x2="708" y1="266.0" y2="266.0" stroke="#D3BD84" stroke-width="1" /><text x="32" y="270.0" text-anchor="end" font-size="11" fill="#8B7A50">0</text><line x1="40" x2="708" y1="184.7" y2="184.7" stroke="#D3BD84" stroke-width="1" stroke-dasharray="2 4"/><text x="32" y="188.7" text-anchor="end" font-size="11" fill="#8B7A50">5</text><line x1="40" x2="708" y1="103.3" y2="103.3" stroke="#D3BD84" stroke-width="1" stroke-dasharray="2 4"/><text x="32" y="107.3" text-anchor="end" font-size="11" fill="#8B7A50">10</text><line x1="40" x2="708" y1="22.0" y2="22.0" stroke="#D3BD84" stroke-width="1" stroke-dasharray="2 4"/><text x="32" y="26.0" text-anchor="end" font-size="11" fill="#8B7A50">15</text><rect x="61.0" y="251.7" width="53.4" height="14.3" fill="#2a78d6"><title>2020 &#183; Rulings and filings: 1 entry</title></rect><rect x="61.0" y="219.2" width="53.4" height="30.5" fill="#1baf7a"><title>2020 &#183; Speeches and statements: 2 entries</title></rect><rect x="61.0" y="186.7" width="53.4" height="30.5" fill="#eda100"><title>2020 &#183; Milestones: 2 entries</title></rect><path d="M61.0,184.7 V172.4 Q61.0,168.4 65.0,168.4 H110.4 Q114.4,168.4 114.4,172.4 V184.7 Z" fill="#e87ba4"><title>2020 &#183; Rules and reports: 1 entry</title></path><text x="87.7" y="162.4" text-anchor="middle" font-size="11.5" font-weight="600" fill="#131E29">6</text><text x="87.7" y="284" text-anchor="middle" font-size="11.5" fill="#8B7A50">2020</text><path d="M156.4,266.0 V253.7 Q156.4,249.7 160.4,249.7 H205.9 Q209.9,249.7 209.9,253.7 V266.0 Z" fill="#eda100"><title>2021 &#183; Milestones: 1 entry</title></path><text x="183.1" y="243.7" text-anchor="middle" font-size="11.5" font-weight="600" fill="#131E29">1</text><text x="183.1" y="284" text-anchor="middle" font-size="11.5" fill="#8B7A50">2021</text><rect x="251.9" y="251.7" width="53.4" height="14.3" fill="#eb6834"><title>2022 &#183; Enforcement: 1 entry</title></rect><rect x="251.9" y="219.2" width="53.4" height="30.5" fill="#eda100"><title>2022 &#183; Milestones: 2 entries</title></rect><path d="M251.9,217.2 V204.9 Q251.9,200.9 255.9,200.9 H301.3 Q305.3,200.9 305.3,204.9 V217.2 Z" fill="#e87ba4"><title>2022 &#183; Rules and reports: 1 entry</title></path><text x="278.6" y="194.9" text-anchor="middle" font-size="11.5" font-weight="600" fill="#131E29">4</text><text x="278.6" y="284" text-anchor="middle" font-size="11.5" fill="#8B7A50">2022</text><rect x="347.3" y="202.9" width="53.4" height="63.1" fill="#2a78d6"><title>2023 &#183; Rulings and filings: 4 entries</title></rect><rect x="347.3" y="186.7" width="53.4" height="14.3" fill="#eb6834"><title>2023 &#183; Enforcement: 1 entry</title></rect><rect x="347.3" y="105.3" width="53.4" height="79.3" fill="#1baf7a"><title>2023 &#183; Speeches and statements: 5 entries</title></rect><rect x="347.3" y="72.8" width="53.4" height="30.5" fill="#eda100"><title>2023 &#183; Milestones: 2 entries</title></rect><path d="M347.3,70.8 V58.5 Q347.3,54.5 351.3,54.5 H396.7 Q400.7,54.5 400.7,58.5 V70.8 Z" fill="#e87ba4"><title>2023 &#183; Rules and reports: 1 entry</title></path><text x="374.0" y="48.5" text-anchor="middle" font-size="11.5" font-weight="600" fill="#131E29">13</text><text x="374.0" y="284" text-anchor="middle" font-size="11.5" fill="#8B7A50">2023</text><rect x="442.7" y="251.7" width="53.4" height="14.3" fill="#2a78d6"><title>2024 &#183; Rulings and filings: 1 entry</title></rect><rect x="442.7" y="219.2" width="53.4" height="30.5" fill="#eb6834"><title>2024 &#183; Enforcement: 2 entries</title></rect><rect x="442.7" y="202.9" width="53.4" height="14.3" fill="#1baf7a"><title>2024 &#183; Speeches and statements: 1 entry</title></rect><rect x="442.7" y="170.4" width="53.4" height="30.5" fill="#eda100"><title>2024 &#183; Milestones: 2 entries</title></rect><path d="M442.7,168.4 V123.6 Q442.7,119.6 446.7,119.6 H492.1 Q496.1,119.6 496.1,123.6 V168.4 Z" fill="#e87ba4"><title>2024 &#183; Rules and reports: 3 entries</title></path><text x="469.4" y="113.6" text-anchor="middle" font-size="11.5" font-weight="600" fill="#131E29">9</text><text x="469.4" y="284" text-anchor="middle" font-size="11.5" fill="#8B7A50">2024</text><rect x="538.1" y="186.7" width="53.4" height="79.3" fill="#2a78d6"><title>2025 &#183; Rulings and filings: 5 entries</title></rect><rect x="538.1" y="170.4" width="53.4" height="14.3" fill="#eb6834"><title>2025 &#183; Enforcement: 1 entry</title></rect><rect x="538.1" y="137.9" width="53.4" height="30.5" fill="#1baf7a"><title>2025 &#183; Speeches and statements: 2 entries</title></rect><rect x="538.1" y="105.3" width="53.4" height="30.5" fill="#eda100"><title>2025 &#183; Milestones: 2 entries</title></rect><path d="M538.1,103.3 V74.8 Q538.1,70.8 542.1,70.8 H587.6 Q591.6,70.8 591.6,74.8 V103.3 Z" fill="#e87ba4"><title>2025 &#183; Rules and reports: 2 entries</title></path><text x="564.9" y="64.8" text-anchor="middle" font-size="11.5" font-weight="600" fill="#131E29">12</text><text x="564.9" y="284" text-anchor="middle" font-size="11.5" fill="#8B7A50">2025</text><rect x="633.6" y="251.7" width="53.4" height="14.3" fill="#2a78d6"><title>2026 &#183; Rulings and filings: 1 entry</title></rect><path d="M633.6,249.7 V237.5 Q633.6,233.5 637.6,233.5 H683.0 Q687.0,233.5 687.0,237.5 V249.7 Z" fill="#1baf7a"><title>2026 &#183; Speeches and statements: 1 entry</title></path><text x="660.3" y="227.5" text-anchor="middle" font-size="11.5" font-weight="600" fill="#131E29">2</text><text x="660.3" y="284" text-anchor="middle" font-size="11.5" fill="#8B7A50">2026</text></g><text x="24" y="434" font-size="11" fill="#5A4B26">Source: Protocol STAMP, The Chronicle, https://protocolstamp.com/chronicle/ &#183; counts by year of the event &#183; not legal advice</text></svg>